<?xml version="1.0" encoding="utf-8"?>
<svg viewBox="-314.3591 -98.4739 1579.304 532.6861" xmlns="http://www.w3.org/2000/svg">
  <defs/>
  <g transform="matrix(0.10000000149011612, 0, 0, -0.10000000149011612, -319.055002184361, 609.3346128861486)" fill="#000000" stroke="none">
    <path d="M 13965 7073 C 13452 7029 13141 6935 12828 6731 C 12544 6545 12287 6272 12108 5963 C 12055 5873 11964 5662 11920 5530 C 11755 5035 11777 4483 11982 4000 C 12118 3679 12399 3311 12676 3088 C 12880 2924 13236 2759 13500 2706 C 13752 2656 14023 2640 14215 2664 C 14434 2692 14768 2767 14843 2806 C 14859 2813 14876 2820 14881 2820 C 14886 2820 14890 2787 14890 2746 L 14890 2672 L 14983 2666 C 15033 2662 15246 2659 15455 2657 L 15835 2655 L 15832 3235 C 15831 3554 15827 4102 15824 4453 L 15818 5090 L 14926 5090 L 14034 5090 L 14038 4618 C 14040 4338 14046 4141 14051 4135 C 14057 4129 14233 4124 14528 4122 C 14784 4120 14996 4117 14998 4115 C 15000 4113 14949 4057 14884 3990 C 14718 3819 14576 3727 14385 3666 C 14063 3563 13773 3583 13475 3729 C 13271 3829 13141 3942 13001 4137 C 12911 4263 12864 4363 12823 4517 C 12785 4655 12785 4655 12785 4860 C 12785 5077 12791 5114 12852 5295 C 12993 5711 13361 6031 13815 6131 C 13904 6151 14155 6148 14257 6127 C 14480 6080 14632 6017 14791 5909 C 14903 5832 15053 5683 15145 5557 C 15184 5504 15220 5461 15226 5461 C 15233 5460 15255 5479 15275 5503 C 15296 5526 15431 5665 15576 5812 C 15752 5991 15840 6087 15840 6101 C 15840 6125 15805 6170 15655 6339 C 15522 6490 15373 6619 15203 6733 C 14907 6930 14652 7015 14229 7060 C 14121 7071 14027 7079 14019 7078 C 14011 7077 13987 7075 13965 7073 Z" style="fill: rgb(189, 208, 220);"/>
    <path d="M2804 7023 l-611 -3 -204 -238 c-112 -130 -206 -239 -209 -242 -3 -3&#10;-37 -43 -75 -90 -38 -47 -96 -117 -130 -156 -33 -39 -96 -113 -140 -165 -104&#10;-122 -288 -330 -365 -410 -49 -52 -62 -61 -70 -49 -6 9 -10 275 -10 683 l0&#10;667 -467 -2 -468 -3 -5 -2173 c-3 -1194 -4 -2177 -2 -2182 2 -6 169 -10 473&#10;-10 l469 0 1 913 c0 501 3 930 7 951 l7 39 75 -74 c66 -66 177 -199 529 -637&#10;52 -64 149 -182 216 -262 125 -149 396 -486 613 -763 l124 -157 569 0 c313 0&#10;569 3 569 6 0 8 -219 330 -285 420 -29 39 -111 140 -181 225 -121 144 -239&#10;293 -428 540 -133 173 -551 693 -705 878 -81 95 -190 226 -243 290 -54 64 -98&#10;121 -98 126 0 18 372 437 673 759 110 117 275 299 444 491 58 66 216 231 349&#10;367 134 135 244 251 244 257 0 6 -12 10 -27 9 -16 -2 -303 -4 -639 -5z" style="fill: rgb(189, 208, 220);"/>
    <path d="M7758 5367 c-3 -1560 -4 -1656 -20 -1674 -10 -11 -18 -29 -18 -40 0&#10;-12 60 -142 133 -290 72 -147 169 -356 215 -463 45 -107 88 -206 95 -220 l13&#10;-25 288 0 288 0 -1 1345 -1 1345 27 -31 c16 -17 89 -109 163 -204 74 -95 176&#10;-226 226 -289 125 -161 575 -739 599 -772 11 -15 77 -99 147 -188 145 -182&#10;447 -581 498 -656 19 -27 91 -126 160 -220 69 -93 141 -195 160 -225 67 -110&#10;30 -100 377 -100 l303 0 2 1528 c1 840 2 1818 3 2175 l0 647 -483 -2 -482 -3&#10;0 -1109 c0 -1055 -1 -1108 -17 -1095 -10 8 -27 25 -37 38 -11 13 -52 61 -91&#10;105 -38 45 -144 175 -235 289 -91 115 -259 326 -374 470 -115 144 -333 422&#10;-485 617 -454 583 -479 614 -514 655 l-35 40 -450 3 -451 3 -3 -1654z" style="fill: rgb(189, 208, 220);"/>
    <path d="M4810 7002 c-12 -4 -20 -20 -165 -357 -125 -288 -162 -372 -390 -880&#10;-87 -192 -198 -440 -247 -550 -50 -110 -107 -238 -128 -285 -21 -47 -57 -125&#10;-80 -175 -23 -49 -73 -157 -110 -240 -186 -415 -255 -567 -287 -635 -34 -73&#10;-35 -75 -18 -106 25 -47 524 -710 626 -832 6 -8 15 -10 19 -5 5 4 92 176 195&#10;381 114 226 196 378 209 386 17 11 183 14 861 15 l840 2 84 -183 c159 -347&#10;188 -414 276 -633 48 -121 92 -226 97 -232 8 -10 130 -13 549 -13 297 0 539 4&#10;539 9 0 28 -174 408 -440 961 -156 325 -248 529 -395 875 -118 279 -187 438&#10;-362 835 -141 317 -176 400 -363 840 -62 146 -159 373 -215 505 -56 132 -109&#10;258 -117 280 l-16 40 -476 0 c-261 0 -480 -2 -486 -3z m578 -1582 c125 -300&#10;179 -422 266 -604 42 -87 76 -162 76 -167 0 -10 -907 -15 -917 -5 -1 1 15 36&#10;37 77 22 42 54 109 71 150 17 41 42 99 56 129 14 30 38 87 53 125 29 74 135&#10;312 168 380 11 22 32 66 47 98 23 49 30 57 40 45 8 -7 54 -110 103 -228z" style="fill: rgb(189, 208, 220);"/>
    <path d="M 362 1903 L 365 1765 L 1055 1757 C 2054 1750 15122 1749 15227 1756 L 15315 1765 L 15315 1900 L 15315 2035 L 7837 2038 L 359 2040 L 362 1903 Z" style="fill: rgb(189, 208, 220);"/>
  </g>
</svg>